<svg width="500" height="500" viewBox="0 0 500 500" fill="none" xmlns="http://www.w3.org/2000/svg">
<ellipse cx="251.152" cy="251.382" rx="240.416" ry="240.416" fill="#1E293B"/>
<path d="M342.929 342.929C302.709 383.149 255.735 408.36 212.684 416.971C169.55 425.598 131.586 417.443 107.071 392.929C82.557 368.414 74.4026 330.451 83.0295 287.316C91.6398 244.265 116.851 197.291 157.071 157.071C197.291 116.851 244.265 91.6394 287.317 83.0291C330.451 74.4023 368.415 82.5567 392.929 107.071C417.444 131.585 425.598 169.549 416.971 212.683C408.361 255.735 383.149 302.709 342.929 342.929Z" stroke="white" stroke-width="20"/>
<path d="M342.929 157.071C383.149 197.291 408.36 244.265 416.971 287.317C425.597 330.451 417.443 368.415 392.929 392.929C368.414 417.443 330.45 425.598 287.316 416.971C244.265 408.361 197.291 383.149 157.071 342.929C116.851 302.709 91.6394 255.735 83.0291 212.684C74.4023 169.549 82.5566 131.586 107.071 107.071C131.585 82.5567 169.549 74.4023 212.683 83.0292C255.735 91.6395 302.709 116.851 342.929 157.071Z" stroke="white" stroke-width="20"/>
<path d="M207.588 326.031L297.263 170.709" stroke="#6DFFD3" stroke-width="10" stroke-linecap="round"/>
<path d="M207.588 326.031L297.263 170.709" stroke="#6DFFD3" stroke-width="20" stroke-linecap="round"/>
<path d="M208.725 169.358L225.452 198.33" stroke="#6DFFD3" stroke-width="20" stroke-linecap="round"/>
<path d="M282.264 296.637L298.991 325.61" stroke="#6DFFD3" stroke-width="20" stroke-linecap="round"/>
</svg>
